<svg width="300" height="300" viewBox="0 0 300 300" fill="none" xmlns="http://www.w3.org/2000/svg">
  <path d="M210.481 294C171.54 294 152.489 266.962 148.62 261.375C137.126 272.63 119.774 294 88.5187 294C52.4257 294 22 266.862 22 222.862V76.138C22 32.0378 52.4757 5 88.5187 5C124.562 5 155.037 33.7171 155.037 75.4683C162.074 72.9794 169.541 71.69 177.217 71.69C214.349 71.69 243.736 101.976 243.736 138.38C243.736 148.585 241.797 157.661 237.559 166.357C261.107 176.853 277 200.472 277 227.31C277 264.083 247.154 294 210.481 294ZM164.703 245.252C174.268 261.914 190.371 271.77 210.481 271.77C234.93 271.77 254.83 251.819 254.83 227.31C254.83 207.919 242.396 191.046 224.505 185.109L164.703 245.262V245.252ZM88.5287 27.23C66.4591 27.23 44.1796 42.3532 44.1796 76.138V222.862C44.1796 256.647 66.4491 271.77 88.5287 271.77C106.05 271.77 115.736 262.904 131.359 247.241L138.275 240.304C134.707 229.639 132.868 217.804 132.868 205.07V76.138C132.868 42.3532 110.598 27.23 88.5187 27.23H88.5287ZM155.047 99.8573V205.08C155.047 211.037 155.547 216.705 156.497 222.042L204.694 173.724C218.697 159.69 221.566 149.445 221.566 138.39C221.566 114.771 202.635 93.93 177.217 93.93C169.311 93.93 161.744 95.9691 155.047 99.8673V99.8573Z" fill="#609F28"/>
</svg>
