<svg width="244" height="40" viewBox="0 0 244 40" fill="none" xmlns="http://www.w3.org/2000/svg">
<path d="M26.3621 40C20.9155 40 18.2509 36.2577 17.7098 35.4844C16.1021 37.0422 13.6752 40 9.30368 40C4.25551 40 0 36.2439 0 30.1539V9.84609C0 3.74226 4.2625 0 9.30368 0C14.3449 0 18.6074 3.97468 18.6074 9.7534C19.5915 9.40892 20.6359 9.23045 21.7095 9.23045C26.9031 9.23045 31.0132 13.4223 31.0132 18.4609C31.0132 19.8734 30.742 21.1296 30.1492 22.3332C33.4429 23.7858 35.6657 27.055 35.6657 30.7695C35.6657 35.8593 31.4913 40 26.3621 40ZM19.9592 33.2529C21.2971 35.5591 23.5493 36.9232 26.3621 36.9232C29.7816 36.9232 32.565 34.1618 32.565 30.7695C32.565 28.0856 30.8259 25.7504 28.3234 24.9286L19.9592 33.2542V33.2529ZM9.30508 3.07682C6.2183 3.07682 3.10216 5.16999 3.10216 9.84609V30.1539C3.10216 34.83 6.2169 36.9232 9.30508 36.9232C11.7558 36.9232 13.1104 35.6961 15.2955 33.5282L16.2629 32.568C15.7638 31.0919 15.5066 29.4539 15.5066 27.6913V9.84471C15.5066 5.16861 12.3919 3.07543 9.30368 3.07543L9.30508 3.07682ZM18.6088 13.129V27.6927C18.6088 28.5173 18.6787 29.3017 18.8115 30.0405L25.5526 23.3528C27.5112 21.4104 27.9124 19.9924 27.9124 18.4623C27.9124 15.1932 25.2646 12.3087 21.7095 12.3087C20.6037 12.3087 19.5454 12.5909 18.6088 13.1304V13.129ZM49.9323 9.23045H53.8313V22.6708C56.8524 21.3842 58.9326 19.1333 60.2649 15.6608H64.2618C63.1574 18.9728 61.5972 21.5446 59.5184 23.4095L65.8541 31.738H61.2407L56.4973 25.4681C55.6529 25.8541 54.775 26.1751 53.8327 26.4324V31.738H49.9337V9.23045H49.9323ZM67.2172 27.2044V9.23045H70.9219V27.0121C70.9219 28.5228 71.3441 28.9738 72.1884 28.9738C72.6763 28.9738 73.1307 28.877 73.7151 28.6197V31.7394C73.0328 31.9967 72.2528 32.189 71.3427 32.189C68.8402 32.189 67.2158 30.9024 67.2158 27.2058L67.2172 27.2044ZM74.9663 23.7001C74.9663 18.5882 78.2152 15.2112 83.3487 15.2112C89.0665 15.2112 92.0247 19.4556 90.4645 24.7294H78.8974C79.2232 27.3981 80.7176 28.9738 83.3165 28.9738C85.0389 28.9738 86.6633 28.17 87.5734 27.1407L90.4002 29.1343C88.7757 30.8705 86.4354 32.189 83.2522 32.189C78.1831 32.189 74.9663 28.8133 74.9663 23.7001ZM86.9555 22.1243C87.1834 19.8098 85.8511 18.2977 83.2844 18.2977C80.7176 18.2977 79.3532 19.6479 78.9631 22.1243H86.9555ZM95.5392 8.65216C96.8715 8.65216 97.9116 9.68146 97.9116 10.9999C97.9116 12.3183 96.8715 13.3476 95.5392 13.3476C94.2069 13.3476 93.1668 12.3183 93.1668 10.9999C93.1668 9.68146 94.2069 8.65216 95.5392 8.65216ZM93.6547 15.6622H97.3594V31.7394H93.6547V15.6622ZM100.955 15.6622H104.66V18.62C105.732 16.4978 107.714 15.2112 110.183 15.2112C115.415 15.2112 115.415 20.323 115.415 22.7358V31.7394H111.71V22.8326C111.71 20.9995 111.71 18.3959 108.851 18.3959C106.382 18.3959 104.66 20.5817 104.66 23.8619V31.7394H100.955V15.6622ZM133.781 28.9738C134.041 28.9738 134.366 28.942 134.658 28.8133V31.8362C134.074 32.0935 133.554 32.1904 132.904 32.1904C130.953 32.1904 129.849 30.6464 129.849 28.4924V27.9777C128.777 30.6464 126.568 32.1904 123.545 32.1904C120.101 32.1904 117.956 30.1968 117.956 27.3994C117.956 24.1525 120.815 22.1907 125.396 22.1907C126.663 22.1907 127.963 22.3512 129.101 22.6085C129.101 20.229 127.997 18.3959 125.526 18.3959C123.772 18.3959 122.472 19.2315 122.277 20.9677H118.54C118.67 17.4634 121.497 15.2125 125.591 15.2125C130.66 15.2125 132.804 18.2672 132.804 22.6085V27.9141C132.804 28.6861 133.226 28.9752 133.779 28.9752L133.781 28.9738ZM124.293 29.263C126.666 29.263 128.614 27.7522 129.232 25.4045C128.16 25.0503 126.86 24.858 125.691 24.858C123.027 24.858 121.727 25.8223 121.727 27.3012C121.727 28.5878 122.701 29.263 124.293 29.263ZM136.916 15.6622H140.62V18.62C141.693 16.4978 143.675 15.2112 146.144 15.2112C151.375 15.2112 151.375 20.323 151.375 22.7358V31.7394H147.671V22.8326C147.671 20.9995 147.671 18.3959 144.812 18.3959C142.343 18.3959 140.62 20.5817 140.62 23.8619V31.7394H136.916V15.6622ZM153.717 28.8133L162.263 18.7168H154.303V15.6622H167.072V18.0099L157.974 28.8133H167.396V31.7394H153.717V28.8133ZM168.727 23.7014C168.727 18.5896 171.976 15.2125 177.11 15.2125C182.827 15.2125 185.786 19.457 184.225 24.7307H172.658C172.984 27.3994 174.479 28.9752 177.077 28.9752C178.8 28.9752 180.424 28.1714 181.334 27.1421L184.161 29.1357C182.537 30.8719 180.196 32.1904 177.013 32.1904C171.944 32.1904 168.727 28.8147 168.727 23.7014ZM180.716 22.1257C180.944 19.8112 179.612 18.299 177.045 18.299C174.479 18.299 173.114 19.6493 172.724 22.1257H180.716ZM189.3 8.65355C190.632 8.65355 191.673 9.68284 191.673 11.0013C191.673 12.3197 190.632 13.349 189.3 13.349C187.968 13.349 186.928 12.3197 186.928 11.0013C186.928 9.68284 187.968 8.65355 189.3 8.65355ZM187.416 15.6635H191.12V31.7407H187.416V15.6635ZM193.489 33.0592H197.355C197.648 34.4094 199.11 35.4069 201.482 35.4069C203.659 35.4069 205.023 34.5381 205.023 33.1878C205.023 30.1968 196.347 31.9662 196.347 28.6861C196.347 27.5931 197.322 27.0467 198.686 26.6289C195.6 26.146 193.617 24.1206 193.617 21.1946C193.617 17.6571 196.574 15.2457 200.993 15.2457C203.268 15.2457 205.12 15.889 206.419 16.9502C206.743 16.0495 206.647 14.6993 206.419 13.67H209.44C209.764 15.5349 209.148 17.5935 207.815 18.7182C208.173 19.4252 208.367 20.2622 208.367 21.1296C208.367 27.4645 200.439 26.5956 200.439 27.8172C200.439 29.3612 208.888 27.7204 208.888 33.2197C208.888 36.4348 205.833 38.6221 201.512 38.6221C196.865 38.6221 194.104 36.0502 193.486 33.0592H193.489ZM200.994 24.0874C203.107 24.0874 204.503 22.9627 204.503 21.2583C204.503 19.5538 203.139 18.4291 200.994 18.4291C198.85 18.4291 197.485 19.5538 197.485 21.2583C197.485 22.9627 198.882 24.0874 200.994 24.0874ZM210.716 23.7014C210.716 18.5896 213.965 15.2125 219.098 15.2125C224.816 15.2125 227.774 19.457 226.214 24.7307H214.647C214.973 27.3994 216.467 28.9752 219.066 28.9752C220.789 28.9752 222.413 28.1714 223.323 27.1421L226.15 29.1357C224.526 30.8719 222.185 32.1904 219.002 32.1904C213.933 32.1904 210.716 28.8147 210.716 23.7014ZM222.705 22.1257C222.933 19.8112 221.601 18.299 219.034 18.299C216.467 18.299 215.103 19.6493 214.713 22.1257H222.705ZM229.35 15.6622H233.055V18.62C234.127 16.4978 236.109 15.2112 238.578 15.2112C243.81 15.2112 243.81 20.323 243.81 22.7358V31.7394H240.105V22.8326C240.105 20.9995 240.105 18.3959 237.246 18.3959C234.777 18.3959 233.055 20.5817 233.055 23.8619V31.7394H229.35V15.6622Z" fill="#BEBCB7"/>
</svg>
